<svg xmlns="http://www.w3.org/2000/svg" viewBox="0 0 100 100" width="200px" height="200px"><circle cx="78" cy="14" r="1" fill="#f1bc19"/><circle cx="50" cy="50" r="38" fill="#f9dbd2"/><circle cx="84" cy="16" r="4" fill="#f1bc19"/><circle cx="14" cy="26" r="2" fill="#ee3e54"/><circle cx="78" cy="77" r="2" fill="#fbcd59"/><circle cx="17" cy="78" r="4" fill="#fbcd59"/><circle cx="24" cy="83" r="2" fill="#ee3e54"/><circle cx="66.483" cy="78.517" r="2.483" fill="#fff"/><circle cx="16" cy="48" r="1" fill="#fff"/><circle cx="86" cy="31" r="1" fill="#f1bc19"/><circle cx="80" cy="66" r="2" fill="#fff"/><g><circle cx="50" cy="50" r="24.25" fill="#78a0cf"/><path fill="#472b29" d="M50,74.95c-13.757,0-24.95-11.192-24.95-24.95S36.243,25.05,50,25.05 c13.758,0,24.95,11.192,24.95,24.95S63.758,74.95,50,74.95z M50,26.45c-12.985,0-23.55,10.564-23.55,23.55S37.015,73.55,50,73.55 S73.55,62.985,73.55,50S62.985,26.45,50,26.45z"/></g><g><path fill="#472b29" d="M50,71c-11.58,0-21-9.421-21-21s9.42-21,21-21c0.276,0,0.5,0.224,0.5,0.5S50.276,30,50,30 c-11.028,0-20,8.972-20,20s8.972,20,20,20c7.927,0,15.114-4.688,18.311-11.943c0.112-0.253,0.407-0.364,0.659-0.257 c0.253,0.111,0.368,0.407,0.257,0.659C65.869,66.077,58.323,71,50,71z"/></g><g><path fill="#472b29" d="M69.729,55.413c-0.039,0-0.079-0.005-0.118-0.015c-0.269-0.065-0.433-0.336-0.367-0.604 c0.835-3.421,0.757-7.009-0.226-10.376c-0.078-0.265,0.074-0.542,0.34-0.619c0.262-0.077,0.542,0.074,0.619,0.34 c1.032,3.534,1.114,7.301,0.237,10.892C70.159,55.26,69.955,55.413,69.729,55.413z"/></g><g><path fill="#472b29" d="M68.551,41.765c-0.188,0-0.367-0.105-0.452-0.287c-2.598-5.506-7.679-9.606-13.594-10.969 c-0.269-0.063-0.437-0.33-0.375-0.6c0.063-0.27,0.328-0.438,0.6-0.375c6.211,1.431,11.547,5.736,14.273,11.518 c0.118,0.249,0.011,0.547-0.239,0.665C68.695,41.749,68.623,41.765,68.551,41.765z"/></g><g><path fill="#fff" d="M50.177,66.583c2.5,0,12.406-11.251,12.406-18.795c0-7.22-5.634-13.205-12.406-13.205 c-7.126,0-12.761,5.985-12.761,13.205C37.417,55.332,47.323,66.583,50.177,66.583z"/><path fill="#472b29" d="M50.177,67.083c-3.172,0-13.261-11.485-13.261-19.295c0-7.557,5.949-13.705,13.261-13.705 c6.996,0,12.906,6.276,12.906,13.705C63.083,55.36,53.188,67.083,50.177,67.083z M50.177,35.083 c-6.761,0-12.261,5.699-12.261,12.705c0,7.35,9.822,18.295,12.261,18.295c2.169,0,11.906-11.027,11.906-18.295 C62.083,40.901,56.631,35.083,50.177,35.083z"/></g><g><path fill="#ee3e54" d="M50,39.749c-0.31,0-0.612,0.028-0.91,0.069c0.558,0.517,0.91,1.244,0.91,2.056 c0,1.565-1.293,2.834-2.889,2.834c-1.236,0-2.282-0.764-2.695-1.835c-0.578,0.953-0.917,2.062-0.917,3.252 c0,3.522,2.91,6.376,6.5,6.376s6.5-2.854,6.5-6.376C56.5,42.603,53.59,39.749,50,39.749z"/><path fill="#472b29" d="M50,53c-3.86,0-7-3.085-7-6.876c0-1.231,0.342-2.445,0.989-3.511 c0.099-0.164,0.278-0.261,0.472-0.238c0.19,0.017,0.354,0.141,0.422,0.318c0.354,0.92,1.229,1.514,2.229,1.514 c1.317,0,2.389-1.047,2.389-2.333c0-0.641-0.266-1.241-0.75-1.688c-0.142-0.132-0.195-0.333-0.137-0.518s0.217-0.318,0.409-0.345 c0.367-0.051,0.678-0.074,0.978-0.074c3.859,0,7,3.084,7,6.875S53.859,53,50,53z M44.444,43.917c-0.292,0.7-0.444,1.45-0.444,2.207 C44,49.364,46.691,52,50,52s6-2.636,6-5.876c0-3.218-2.654-5.839-5.932-5.875c0.282,0.491,0.432,1.046,0.432,1.625 c0,1.838-1.52,3.333-3.389,3.333C46.059,45.207,45.076,44.714,44.444,43.917z"/></g></svg>