<svg xmlns="http://www.w3.org/2000/svg" viewBox="0 0 40 40" width="40px" height="40px"><path fill="#c29653" d="M25.809,2c-4.408,0-10.504,3.249-15.532,8.277c-3.594,3.595-6.268,7.657-7.529,11.44	c-1.183,3.549-0.97,6.368,0.599,7.937C4.24,30.547,5.534,31,7.191,31c0.72,0,1.488-0.095,2.285-0.262	c-1.193-3.342-0.535-6.261,6.907-14.467c4.872-5.372,11.538-8.551,14.357-6.82c0.559-2.68,0.2-4.817-1.087-6.104	C28.76,2.453,27.466,2,25.809,2z"/><path fill="#a5743a" d="M25,8c1.712-0.028,4.203,0.32,5.793,1.188v0c0.058-0.307,0.102-0.605,0.135-0.896	c0.003-0.03,0.006-0.059,0.009-0.089c0.087-0.827,0.069-1.585-0.045-2.27c-0.01-0.058-0.015-0.121-0.026-0.178	c-0.03-0.153-0.073-0.296-0.114-0.441c-0.037-0.13-0.074-0.259-0.119-0.382c-0.042-0.116-0.089-0.228-0.139-0.338	c-0.067-0.148-0.143-0.289-0.223-0.426c-0.047-0.08-0.091-0.162-0.142-0.237c-0.143-0.208-0.297-0.407-0.474-0.584	c-0.218-0.218-0.462-0.408-0.727-0.573c-0.241-0.149-0.506-0.271-0.785-0.376c-0.025-0.01-0.046-0.024-0.072-0.034	c-0.618-0.222-1.326-0.339-2.117-0.353c0,0,0,0,0,0c-1.326,0.024-2.84,0.305-4.443,0.815c-3.634,1.265-7.697,3.915-11.234,7.451	c-2.619,2.619-4.741,5.486-6.192,8.313c-0.353,0.724-0.668,1.424-0.947,2.09c-0.039,0.098-0.074,0.196-0.111,0.294	C8.883,15.222,18.104,8.112,25,8z"/><path fill="#ffeea3" d="M14.609,38.487c-4.486-0.001-7.505-2.35-8.905-3.75c-2.273-2.272-3.301-4.671-3.766-6.359 c0.249,0.627,0.601,1.174,1.056,1.629C3.984,30.998,5.396,31.5,7.191,31.5c4.534,0,10.769-3.307,15.886-8.424 c3.649-3.648,6.366-7.781,7.65-11.635c1.246-3.738,0.99-6.738-0.72-8.448c-0.823-0.823-1.937-1.309-3.319-1.45l0.985,0.05 c1.496,0.25,4.166,1.081,7.003,3.796c2.391,2.392,9.166,11.271-4.368,24.806C24.805,35.697,19.524,38.487,14.609,38.487 C14.609,38.487,14.609,38.487,14.609,38.487z M1.776,23.358c0.861-4.125,3.792-9.08,8.147-13.436 C15.04,4.807,21.275,1.5,25.809,1.5c-4.534,0-10.769,3.307-15.886,8.424c-3.649,3.648-6.366,7.78-7.65,11.635 C2.066,22.18,1.9,22.78,1.776,23.358z"/><path fill="#f5c276" d="M30.853,3.212c1.062,0.554,2.244,1.358,3.462,2.523c2.316,2.316,8.846,10.901-4.36,24.107 c-5.405,5.405-10.568,8.146-15.345,8.146c-4.306,0-7.206-2.257-8.552-3.603c-1.097-1.097-1.894-2.224-2.473-3.28 C4.557,31.699,5.765,32,7.191,32c4.659,0,11.034-3.364,16.24-8.57c3.702-3.703,6.462-7.904,7.771-11.831 C32.384,8.052,32.254,5.111,30.853,3.212 M26.55,0.987c-0.096,0-0.147,0.003-0.147,0.003s0.066,0.015,0.177,0.047 c-0.156-0.008-0.3-0.034-0.46-0.034c-0.057,0-0.117,0.006-0.174,0.007l0.002,0C25.901,1.01,25.858,1,25.809,1 C21.262,1,15.001,4.139,9.57,9.57c-6.497,6.497-9.696,14.173-8.181,18.69c0.442,1.736,1.484,4.354,3.961,6.831 c1.651,1.651,4.797,3.896,9.259,3.896c4.223,0,9.624-2.01,16.053-8.439c13.221-13.221,7.551-22.329,4.36-25.521 C31.021,1.199,27.321,0.987,26.55,0.987L26.55,0.987z M7.191,31c-1.657,0-2.951-0.453-3.844-1.347 c-1.569-1.569-1.782-4.388-0.599-7.937c1.261-3.782,3.935-7.845,7.529-11.44C15.305,5.249,21.402,2,25.809,2 c1.657,0,2.951,0.453,3.844,1.347c1.569,1.569,1.782,4.388,0.599,7.937c-1.261,3.782-3.935,7.845-7.53,11.44 C17.695,27.751,11.598,31,7.191,31L7.191,31z"/><path fill="none" stroke="#f5c276" stroke-linecap="round" stroke-linejoin="round" stroke-miterlimit="10" d="M5.756,24.302	c-0.548,0.15-0.818,0.904-0.492,1.369c0.327,0.464,1.129,0.463,1.454-0.002c0.196-0.279,0.215-0.646,0.186-0.985	c-0.071-0.833-0.385-1.63-0.462-2.463c-0.077-0.833,0.164-1.788,0.896-2.193c-0.479,0.296-0.806,0.887-0.665,1.433	c0.142,0.546,0.847,0.906,1.32,0.6c0.318-0.205,0.442-0.619,0.428-0.998c-0.014-0.378-0.14-0.743-0.21-1.115	c-0.298-1.568,0.48-3.282,1.855-4.091c-0.545,0.304-1.019,0.855-0.979,1.478c0.04,0.623,0.822,1.141,1.324,0.771	c0.241-0.178,0.343-0.486,0.409-0.777c0.203-0.898,0.193-1.844,0.503-2.71c0.31-0.866,1.087-1.677,2.004-1.601	c-0.486-0.128-1.044,0.207-1.16,0.697c-0.115,0.489,0.234,1.039,0.727,1.141c0.191,0.039,0.406,0.013,0.552-0.115	c0.114-0.1,0.173-0.248,0.223-0.392c0.291-0.833,0.415-1.719,0.733-2.542c0.317-0.823,0.885-1.617,1.723-1.894	c0.138-0.045,0.326-0.056,0.391,0.074c-0.441-0.082-0.918,0.221-1.032,0.654c-0.114,0.433,0.152,0.932,0.576,1.078	c0.1,0.035,0.212,0.051,0.312,0.016c0.107-0.037,0.187-0.126,0.253-0.217c0.341-0.463,0.468-1.044,0.593-1.606	c0.126-0.562,0.269-1.143,0.635-1.587c0.366-0.444,1.019-0.707,1.533-0.448c-0.483-0.187-1.093,0.102-1.255,0.594	c-0.162,0.491,0.156,1.087,0.654,1.224c0.499,0.138,1.077-0.208,1.192-0.713"/><path fill="none" stroke="#f5c276" stroke-linecap="round" stroke-linejoin="round" stroke-miterlimit="10" d="M8.901,14.725	c-0.788,1.083-0.989,2.499-0.877,3.835s0.509,2.626,0.814,3.931C8.953,22.986,9.056,23.495,9,24	c-0.056,0.505-0.297,1.014-0.732,1.278"/><path fill="#fff9de" d="M32,8c0.015,0.274-0.052,0.636-0.154,1.033c-0.108,0.664-0.284,1.364-0.503,2.086	c-0.004,0.013-0.007,0.025-0.011,0.038c-0.046,0.149-0.08,0.292-0.13,0.443c-0.048,0.143-0.111,0.289-0.163,0.433	c-0.041,0.114-0.086,0.229-0.129,0.344c-0.197,0.522-0.418,1.047-0.664,1.575c-0.039,0.084-0.075,0.167-0.115,0.251	c-0.14,0.292-0.288,0.585-0.442,0.878c-0.054,0.103-0.11,0.205-0.166,0.308c-0.343,0.634-0.712,1.267-1.117,1.899	c1.542,1.161,6.735,5.761,2.076,12.006c1.602-1.655,2.895-3.235,3.925-4.738C40.832,14.128,33.309,7.629,32,8z"/><path fill="none" stroke="#f5ce85" stroke-linecap="round" stroke-linejoin="round" stroke-miterlimit="10" d="M9.147,36.866	c2.658-0.077,5.294-0.792,7.627-2.068c0.485-0.265,0.447-0.742,0.529-1.288c0.141-0.944,0.545-2.042,1.479-2.238	c-0.638,0.19-1.132,0.871-0.992,1.521c0.141,0.65,1.009,1.06,1.545,0.665c0.483-0.356,0.485-1.057,0.507-1.656	c0.044-1.216,0.593-2.648,1.794-2.846c-0.695,0.157-1.092,1.07-0.734,1.685c0.358,0.615,1.349,0.72,1.828,0.192	c0.031-1.034,0.306-2.061,0.795-2.973c0.26-0.486,0.65-0.982,1.199-1.039c-0.661-0.009-1.07,0.896-0.718,1.455	c0.353,0.559,1.201,0.656,1.756,0.299s0.825-1.051,0.818-1.712c-0.004-0.362-0.081-0.721-0.074-1.083	c0.017-0.915,0.616-1.794,1.462-2.143c-0.627,0.405-1.138,1.246-0.736,1.876c0.369,0.577,1.303,0.527,1.792,0.047	c0.489-0.479,0.62-1.215,0.624-1.899c0.004-0.684-0.092-1.378,0.048-2.049c0.14-0.67,0.594-1.339,1.268-1.459	c-0.529,0.082-1.009,0.527-1.036,1.061c-0.028,0.534,0.491,1.056,1.016,0.952c0.409-0.082,0.684-0.47,0.841-0.856	c0.302-0.742,0.323-1.594,0.058-2.349c-0.078-0.221-0.18-0.436-0.208-0.669c-0.087-0.703,0.496-1.293,1.029-1.76	c-0.346,0.148-0.608,0.477-0.674,0.848c-0.107,0.6,0.388,1.257,0.997,1.257c0.609,0,1.108-0.737,0.833-1.281"/><path fill="#f5c276" d="M1.638,29.124c0.549,1.678,1.62,3.876,3.712,5.968c3.213,3.213,12.091,8.677,25.311-4.543	C20.307,40.903,7.544,35.23,1.638,29.124z"/><path fill="none" stroke="#f5ce85" stroke-linecap="round" stroke-linejoin="round" stroke-miterlimit="10" d="M27.752,20.358	c-0.849,0.985-1.342,2.268-1.373,3.568c-0.029,1.281,0.374,2.533,0.485,3.809c0.11,1.277-0.159,2.722-1.196,3.475"/></svg>